<?xml version="1.0" encoding="UTF-8" standalone="no"?>
<!-- Created using Karbon14, part of koffice: http://www.koffice.org/karbon -->

<svg
   xmlns:dc="http://purl.org/dc/elements/1.1/"
   xmlns:cc="http://creativecommons.org/ns#"
   xmlns:rdf="http://www.w3.org/1999/02/22-rdf-syntax-ns#"
   xmlns:svg="http://www.w3.org/2000/svg"
   xmlns="http://www.w3.org/2000/svg"
   xmlns:sodipodi="http://sodipodi.sourceforge.net/DTD/sodipodi-0.dtd"
   xmlns:inkscape="http://www.inkscape.org/namespaces/inkscape"
   width="266pt"
   height="210pt"
   id="svg2580"
   sodipodi:version="0.32"
   inkscape:version="0.92.3 (2405546, 2018-03-11)"
   sodipodi:docname="sigmoid.svg"
   version="1.0">
  <metadata
     id="metadata2752">
    <rdf:RDF>
      <cc:Work
         rdf:about="">
        <dc:format>image/svg+xml</dc:format>
        <dc:type
           rdf:resource="http://purl.org/dc/dcmitype/StillImage" />
      </cc:Work>
    </rdf:RDF>
  </metadata>
  <sodipodi:namedview
     inkscape:window-height="1057"
     inkscape:window-width="1920"
     inkscape:pageshadow="2"
     inkscape:pageopacity="0.0"
     borderopacity="1.0"
     bordercolor="#666666"
     pagecolor="#ffffff"
     id="base"
     inkscape:zoom="3.4896816"
     inkscape:cx="197.34494"
     inkscape:cy="148.63297"
     inkscape:window-x="1912"
     inkscape:window-y="-8"
     inkscape:current-layer="g3000"
     showgrid="false"
     inkscape:window-maximized="1" />
  <defs
     id="defs2582" />
  <g
     id="Layer"
     transform="matrix(1,0,0,-1,0,317)" />
  <g
     id="g3000"
     transform="translate(-41.698491,-12.559991)">
    <path
       style="fill:#ffffff;opacity:0"
       id="path2591"
       d="M 54.754,282.465 V 25.641 H 380.555 V 282.465 H 54.754 Z"
       inkscape:connector-curvature="0" />
    <path
       style="fill:none;stroke:#ffffff;stroke-linejoin:round"
       id="path2593"
       d="M 54.754,281.465 V 24.641 H 380.555 V 281.465 H 54.754"
       inkscape:connector-curvature="0" />
    <path
       style="fill:none;stroke:#000000;stroke-linejoin:round"
       id="path2595"
       d="M 54.754,24.641 H 380.555"
       inkscape:connector-curvature="0" />
    <path
       style="fill:none;stroke:#000000;stroke-linejoin:round"
       id="path2597"
       d="M 54.754,281.465 H 380.555"
       inkscape:connector-curvature="0" />
    <path
       style="fill:none;stroke:#000000;stroke-linejoin:round"
       id="path2599"
       d="M 380.555,281.465 V 24.641"
       inkscape:connector-curvature="0" />
    <path
       style="fill:none;stroke:#000000;stroke-linejoin:round"
       id="path2601"
       d="M 54.754,281.465 V 24.641"
       inkscape:connector-curvature="0" />
    <path
       style="fill:none;stroke:#000000;stroke-linejoin:round"
       id="path2603"
       d="M 54.754,281.465 H 380.555"
       inkscape:connector-curvature="0" />
    <path
       style="fill:none;stroke:#000000;stroke-linejoin:round"
       id="path2605"
       d="M 54.754,281.465 V 24.641"
       inkscape:connector-curvature="0" />
    <path
       style="fill:none;stroke:#000000;stroke-linejoin:round"
       id="path2607"
       d="m 54.754,281.465 v -3.313"
       inkscape:connector-curvature="0" />
    <path
       style="fill:none;stroke:#000000;stroke-linejoin:round"
       id="path2609"
       d="m 54.754,24.641 v 3.242"
       inkscape:connector-curvature="0" />
    <path
       style="fill:none;stroke:#000000;stroke-linejoin:round"
       id="path2611"
       d="m 136.117,281.465 v -3.313"
       inkscape:connector-curvature="0" />
    <path
       style="fill:none;stroke:#000000;stroke-linejoin:round"
       id="path2613"
       d="m 136.117,24.641 v 3.242"
       inkscape:connector-curvature="0" />
    <path
       style="fill:none;stroke:#000000;stroke-linejoin:round"
       id="path2615"
       d="m 217.621,281.465 v -3.313"
       inkscape:connector-curvature="0" />
    <path
       style="fill:none;stroke:#000000;stroke-linejoin:round"
       id="path2617"
       d="m 217.621,24.641 v 3.242"
       inkscape:connector-curvature="0" />
    <path
       style="fill:none;stroke:#000000;stroke-linejoin:round"
       id="path2619"
       d="m 299.051,281.465 v -3.313"
       inkscape:connector-curvature="0" />
    <path
       style="fill:none;stroke:#000000;stroke-linejoin:round"
       id="path2621"
       d="m 299.051,24.641 v 3.242"
       inkscape:connector-curvature="0" />
    <path
       style="fill:none;stroke:#000000;stroke-linejoin:round"
       id="path2623"
       d="m 380.555,281.465 v -3.313"
       inkscape:connector-curvature="0" />
    <path
       style="fill:none;stroke:#000000;stroke-linejoin:round"
       id="path2625"
       d="m 380.555,24.641 v 3.242"
       inkscape:connector-curvature="0" />
    <path
       style="fill:none;stroke:#000000;stroke-linejoin:round"
       id="path2627"
       d="m 54.754,281.465 h 3.242"
       inkscape:connector-curvature="0" />
    <path
       style="fill:none;stroke:#000000;stroke-linejoin:round"
       id="path2629"
       d="m 380.555,281.465 h -3.313"
       inkscape:connector-curvature="0" />
    <path
       style="fill:none;stroke:#000000;stroke-linejoin:round"
       id="path2631"
       d="m 54.754,217.242 h 3.242"
       inkscape:connector-curvature="0" />
    <path
       style="fill:none;stroke:#000000;stroke-linejoin:round"
       id="path2633"
       d="m 380.555,217.242 h -3.313"
       inkscape:connector-curvature="0" />
    <path
       style="fill:none;stroke:#000000;stroke-linejoin:round"
       id="path2635"
       d="m 54.754,153.016 h 3.242"
       inkscape:connector-curvature="0" />
    <path
       style="fill:none;stroke:#000000;stroke-linejoin:round"
       id="path2637"
       d="m 380.555,153.016 h -3.313"
       inkscape:connector-curvature="0" />
    <path
       style="fill:none;stroke:#000000;stroke-linejoin:round"
       id="path2639"
       d="m 54.754,88.793 h 3.242"
       inkscape:connector-curvature="0" />
    <path
       style="fill:none;stroke:#000000;stroke-linejoin:round"
       id="path2641"
       d="m 380.555,88.793 h -3.313"
       inkscape:connector-curvature="0" />
    <path
       style="fill:none;stroke:#000000;stroke-linejoin:round"
       id="path2643"
       d="m 54.754,24.641 h 3.242"
       inkscape:connector-curvature="0" />
    <path
       style="fill:none;stroke:#000000;stroke-linejoin:round"
       id="path2645"
       d="m 380.555,24.641 h -3.313"
       inkscape:connector-curvature="0" />
    <path
       style="fill:none;stroke:#000000;stroke-linejoin:round"
       id="path2647"
       d="M 54.754,24.641 H 380.555"
       inkscape:connector-curvature="0" />
    <path
       style="fill:none;stroke:#000000;stroke-linejoin:round"
       id="path2649"
       d="M 54.754,281.465 H 380.555"
       inkscape:connector-curvature="0" />
    <path
       style="fill:none;stroke:#000000;stroke-linejoin:round"
       id="path2651"
       d="M 380.555,281.465 V 24.641"
       inkscape:connector-curvature="0" />
    <path
       style="fill:none;stroke:#000000;stroke-linejoin:round"
       id="path2653"
       d="M 54.754,281.465 V 24.641"
       inkscape:connector-curvature="0" />
    <path
       style="fill:none;stroke:#000000;stroke-linejoin:round"
       id="path2655"
       d="M 217.812,282.465 V 25.641"
       inkscape:connector-curvature="0" />
    <path
       style="fill:none;stroke:#000000;stroke-linejoin:round"
       id="path2657"
       d="M 217.812,282.465 V 25.641"
       inkscape:connector-curvature="0" />
    <path
       style="fill:none;stroke:#000000;stroke-linejoin:round"
       id="path2659"
       d="m 217.812,281.465 v -3.313"
       inkscape:connector-curvature="0" />
    <path
       style="fill:none;stroke:#000000;stroke-linejoin:round"
       id="path2661"
       d="m 217.812,24.641 v 3.242"
       inkscape:connector-curvature="0" />
    <path
       style="fill:none;stroke:#000000;stroke-linejoin:round"
       id="path2663"
       d="m 217.812,281.465 h 3.243"
       inkscape:connector-curvature="0" />
    <path
       style="fill:none;stroke:#000000;stroke-linejoin:round"
       id="path2665"
       d="m 217.812,217.242 h 3.243"
       inkscape:connector-curvature="0" />
    <path
       style="fill:none;stroke:#000000;stroke-linejoin:round"
       id="path2667"
       d="m 217.812,153.016 h 3.243"
       inkscape:connector-curvature="0" />
    <path
       style="fill:#000000;fill-rule:evenodd"
       id="path2669"
       d="m 203.773,149.703 c -1.511,0 -2.375,1.297 -2.375,3.531 0,2.375 0.864,3.672 2.45,3.672 1.511,0 2.375,-1.297 2.375,-3.601 0,-2.305 -0.864,-3.602 -2.45,-3.602 v 0 z m -1.441,3.387 c 0.074,-1.731 0.578,-2.594 1.516,-2.594 0.933,0 1.437,0.938 1.437,2.883 0,1.726 -0.504,2.734 -1.512,2.734 -0.937,0 -1.441,-1.008 -1.441,-2.808 0,-0.071 0,-0.145 0,-0.215 v 0 z"
       inkscape:connector-curvature="0" />
    <path
       style="fill:#000000"
       id="path2671"
       d="m 207.445,155.68 v 1.008 h 1.082 v -1.008 h -1.082 z"
       inkscape:connector-curvature="0" />
    <path
       style="fill:#000000"
       id="path2673"
       d="m 210.469,149.848 -0.504,3.746 0.793,0.07 c 0.359,-0.504 0.793,-0.719 1.297,-0.719 0.863,0 1.511,0.649 1.511,1.582 0,0.938 -0.578,1.586 -1.511,1.586 -0.864,0 -1.367,-0.359 -1.442,-1.152 h -0.933 c 0.07,0.359 0.07,0.504 0.215,0.793 0.289,0.719 1.078,1.152 2.16,1.152 1.511,0 2.445,-1.008 2.445,-2.519 0,-1.227 -1.008,-2.235 -2.301,-2.235 -0.504,0 -0.867,0.145 -1.371,0.434 l 0.363,-1.871 h 2.95 v -0.867 h -3.672 z"
       inkscape:connector-curvature="0" />
    <path
       style="fill:none;stroke:#000000;stroke-linejoin:round"
       id="path2675"
       d="m 217.812,88.793 h 3.243"
       inkscape:connector-curvature="0" />
    <path
       style="fill:#000000"
       id="path2677"
       d="m 212.988,85.41 h -0.718 c -0.145,0.504 -0.215,0.789 -0.434,0.934 -0.285,0.289 -0.719,0.433 -1.438,0.433 v 0.719 h 1.657 v 4.969 h 0.933 V 85.41 Z"
       inkscape:connector-curvature="0" />
    <path
       style="fill:none;stroke:#000000;stroke-linejoin:round"
       id="path2679"
       d="m 217.812,24.641 h 3.243"
       inkscape:connector-curvature="0" />
    <path
       style="fill:none;stroke:#000000;stroke-linejoin:round"
       id="path2681"
       d="M 217.812,282.465 V 25.641"
       inkscape:connector-curvature="0" />
    <path
       style="fill:none;stroke:#000000;stroke-linejoin:round"
       id="path2683"
       d="M 54.754,217.348 H 380.555"
       inkscape:connector-curvature="0" />
    <path
       style="fill:none;stroke:#000000;stroke-linejoin:round"
       id="path2685"
       d="M 54.754,217.348 H 380.555"
       inkscape:connector-curvature="0" />
    <path
       style="fill:none;stroke:#000000;stroke-linejoin:round"
       id="path2687"
       d="m 54.754,217.348 v -3.313"
       inkscape:connector-curvature="0" />
    <path
       style="fill:none;stroke:#000000;stroke-linejoin:round"
       id="path2689"
       d="m 136.117,217.348 v -3.313"
       inkscape:connector-curvature="0" />
    <path
       style="fill:#000000"
       id="path2691"
       d="m 123.805,226.203 v 0.934 h 2.519 v -0.934 h -2.519 z"
       inkscape:connector-curvature="0" />
    <path
       style="fill:#000000;fill-rule:evenodd"
       id="path2693"
       d="m 129.492,222.387 c -1.512,0 -2.375,1.297 -2.375,3.597 0,2.305 0.789,3.672 2.375,3.672 1.582,0 2.449,-1.367 2.449,-3.597 0,-2.375 -0.867,-3.672 -2.449,-3.672 v 0 z m -1.441,3.383 c 0.074,-1.727 0.504,-2.59 1.441,-2.59 1.008,0 1.442,1.008 1.442,2.879 0,1.8 -0.504,2.808 -1.442,2.808 -0.937,0 -1.441,-1.008 -1.441,-2.808 0,-0.075 0,-0.145 0,-0.289 v 0 z"
       inkscape:connector-curvature="0" />
    <path
       style="fill:#000000"
       id="path2695"
       d="m 133.164,228.363 v 1.078 h 1.008 v -1.078 h -1.008 z"
       inkscape:connector-curvature="0" />
    <path
       style="fill:#000000"
       id="path2697"
       d="m 136.188,222.531 -0.575,3.817 h 0.789 c 0.434,-0.434 0.793,-0.649 1.297,-0.649 0.938,0 1.586,0.649 1.586,1.582 0,0.938 -0.648,1.586 -1.586,1.586 -0.793,0 -1.297,-0.433 -1.367,-1.226 h -0.937 c 0.074,0.433 0.074,0.578 0.144,0.793 0.359,0.793 1.082,1.222 2.16,1.222 1.512,0 2.52,-1.008 2.52,-2.519 0,-1.293 -1.008,-2.231 -2.305,-2.231 -0.504,0 -0.934,0.145 -1.367,0.434 l 0.289,-1.945 h 2.953 v -0.864 h -3.601 z"
       inkscape:connector-curvature="0" />
    <path
       style="fill:none;stroke:#000000;stroke-linejoin:round"
       id="path2699"
       d="m 217.621,217.348 v -3.313"
       inkscape:connector-curvature="0" />
    <path
       style="fill:none;stroke:#000000;stroke-linejoin:round"
       id="path2701"
       d="m 299.051,217.348 v -3.313"
       inkscape:connector-curvature="0" />
    <path
       style="fill:#000000;fill-rule:evenodd"
       id="path2703"
       d="m 294.949,222.387 c -1.586,0 -2.449,1.297 -2.449,3.597 0,2.305 0.863,3.672 2.449,3.672 1.512,0 2.375,-1.367 2.375,-3.597 0,-2.375 -0.863,-3.672 -2.375,-3.672 v 0 z m -1.511,3.383 c 0.07,-1.727 0.574,-2.59 1.511,-2.59 0.934,0 1.438,1.008 1.438,2.879 0,1.8 -0.504,2.808 -1.438,2.808 -1.008,0 -1.511,-1.008 -1.511,-2.808 0,-0.075 0,-0.145 0,-0.289 v 0 z"
       inkscape:connector-curvature="0" />
    <path
       style="fill:#000000"
       id="path2705"
       d="m 298.547,228.363 v 1.078 h 1.082 v -1.078 h -1.082 z"
       inkscape:connector-curvature="0" />
    <path
       style="fill:#000000"
       id="path2707"
       d="m 301.57,222.531 -0.504,3.817 h 0.793 c 0.36,-0.434 0.793,-0.649 1.297,-0.649 0.864,0 1.512,0.649 1.512,1.582 0,0.938 -0.574,1.586 -1.512,1.586 -0.863,0 -1.367,-0.433 -1.441,-1.226 h -0.934 c 0.071,0.433 0.071,0.578 0.215,0.793 0.289,0.793 1.078,1.222 2.16,1.222 1.512,0 2.449,-1.008 2.449,-2.519 0,-1.293 -1.007,-2.231 -2.304,-2.231 -0.504,0 -0.863,0.145 -1.297,0.434 l 0.289,-1.945 h 2.949 v -0.864 h -3.672 z"
       inkscape:connector-curvature="0" />
    <path
       style="fill:none;stroke:#000000;stroke-linejoin:round"
       id="path2709"
       d="m 380.555,217.348 v -3.313"
       inkscape:connector-curvature="0" />
    <path
       style="fill:none;stroke:#000000;stroke-linejoin:round"
       id="path2711"
       d="m 54.754,217.348 h 3.242"
       inkscape:connector-curvature="0" />
    <path
       style="fill:none;stroke:#000000;stroke-linejoin:round"
       id="path2713"
       d="m 380.555,217.348 h -3.313"
       inkscape:connector-curvature="0" />
    <path
       style="fill:none;stroke:#000000;stroke-linejoin:round"
       id="path2715"
       d="M 54.754,217.348 H 380.555"
       inkscape:connector-curvature="0" />
    <path
       style="fill:none;stroke:#000000;stroke-linejoin:round"
       id="path2717"
       d="m 217.812,217.348 v -3.313"
       inkscape:connector-curvature="0" />
    <path
       style="fill:none;stroke:#000000;stroke-linejoin:round"
       id="path2719"
       d="m 217.812,217.348 h 3.243"
       inkscape:connector-curvature="0" />
    <path
       style="fill:#000000;fill-rule:evenodd"
       id="path2721"
       d="m 212.125,222.422 c -1.512,0 -2.375,1.297 -2.375,3.601 0,2.301 0.863,3.598 2.375,3.598 1.586,0 2.449,-1.297 2.449,-3.598 0,-2.304 -0.863,-3.601 -2.449,-3.601 v 0 z m -1.437,3.383 c 0.07,-1.727 0.503,-2.59 1.437,-2.59 1.008,0 1.512,0.933 1.512,2.879 0,1.801 -0.575,2.734 -1.512,2.734 -0.934,0 -1.437,-0.933 -1.437,-2.734 0,-0.145 0,-0.215 0,-0.289 v 0 z"
       inkscape:connector-curvature="0" />
    <path
       style="fill:none;stroke:#e18926;stroke-linejoin:round;stroke-opacity:1"
       id="path2723"
       d="m 355.645,90.664 h 0.07 0.074 0.07 0.145 0.07 0.074 0.071 0.074 l 0.07,-0.144 h 0.145 0.07 0.074 0.071 0.074 0.07 0.145 0.07 0.074 0.071 0.074 0.07 0.145 0.07 0.074 0.07 0.075 l 0.07,-0.071 h 0.074 0.145 0.07 0.07 0.075 0.07 0.074 0.145 0.07 0.07 0.074 0.071 0.074 0.145 0.07 0.07 0.074 0.071 0.074 l 0.144,-0.07 h 0.071 0.07 0.074 0.071 0.074 0.07 0.145 0.07 0.074 0.071 0.074 0.07 0.145 0.074 0.07 0.07 0.075 0.07 0.145 0.074 l 0.07,-0.074 h 0.07 0.075 0.07 0.144 0.075 0.07 0.07 0.074 0.071 0.074 0.145 0.07 0.07 0.074 0.071 0.074 0.144 0.071 0.07 0.074 0.071 l 0.074,-0.071 h 0.144 0.071 0.07 0.074 0.07 0.075 0.144 0.071 0.074 0.07 0.07 0.075 0.07 0.144 0.075 0.07 0.07 0.075 0.07 0.144 0.075 0.07 l 0.07,-0.074 h 0.074 0.071 0.144 0.075 0.07 0.07 0.074 0.071 0.144 0.074 0.071 0.07 0.074 0.071 0.074 0.144 0.071 0.07 0.074 0.07 0.075 0.144 0.071 0.074 l 0.07,-0.144 h 0.07 0.075 0.144 0.07 0.075 0.07 0.07 0.074 0.145 0.07 0.075 0.07 0.07 0.074 0.071 0.144 0.074 0.071 0.07 0.074 0.071 0.144 0.074 0.071 0.07 l 0.074,-0.071 h 0.071 0.144 0.074 0.071 0.074 0.07 0.07 0.145 0.074 0.071 0.074 0.07 0.07 0.145 0.074 0.07 0.075 0.07 0.07 0.074 0.145 0.07 0.075 0.07 0.07 0.074 0.145 0.07 l 0.074,-0.07 h 0.071 0.07 0.074 0.145 0.07 0.074 0.071 0.07 0.074 0.145 0.07 0.074 0.071 0.074 0.07 0.07 0.145 0.074 0.07 0.075 0.07 0.07 0.145 0.074 0.07 0.075 0.07 0.07 0.145 l 0.074,-0.074 h 0.07 0.075 0.07 0.07 0.145 0.074 0.07 0.074 0.071 0.07 0.074 0.145 0.07 0.074 0.071 0.07 0.074 0.145 0.07 0.074 0.071 0.074 0.07 0.145 0.07 0.074 0.07 0.075 0.07 0.144 0.071 0.074 l 0.07,-0.071 h 0.075 0.07 0.07 0.145 0.074 0.07 0.074 0.071 0.07 0.145 0.074 0.07 0.074 0.071 0.07 0.145 0.074 0.07 0.074 0.071 0.074 0.14 0.075 0.07 0.074 0.071 0.074 0.07 0.145 0.07 0.074 0.07 0.075 0.07 l 0.144,-0.074 h 0.071 0.074 0.07 0.075 0.07 0.144 0.071 0.074"
       inkscape:connector-curvature="0" />
    <path
       style="fill:none;stroke:#e18926;stroke-linejoin:round;stroke-opacity:1"
       id="path2725"
       d="m 330.73,92.609 h 0.075 0.07 0.074 0.145 0.07 0.07 0.075 l 0.07,-0.074 h 0.074 0.145 0.07 0.07 0.074 0.071 0.074 0.07 l 0.145,-0.07 h 0.07 0.074 0.071 0.074 0.07 0.145 0.07 0.074 l 0.071,-0.07 h 0.074 0.07 0.145 0.07 0.074 0.071 0.074 0.07 0.145 l 0.074,-0.075 h 0.07 0.07 0.075 0.07 0.074 0.145 0.07 0.07 l 0.075,-0.07 h 0.07 0.074 0.145 0.07 0.07 0.074 0.071 0.074 0.145 l 0.07,-0.145 h 0.07 0.074 0.071 0.074 0.144 0.071 0.07 0.074 0.071 l 0.074,-0.074 h 0.144 0.071 0.07 0.074 0.07 0.075 0.07 0.145 0.074 l 0.07,-0.07 h 0.07 0.075 0.07 0.144 0.075 0.07 0.07 0.075 0.07 0.144 l 0.075,-0.07 h 0.07 0.07 0.074 0.071 0.144 0.075 0.07 0.07 0.074 0.071 l 0.074,-0.075 h 0.144 0.071 0.07 0.074 0.071 0.074 0.144 0.071 0.07 0.074 l 0.07,-0.07 h 0.075 0.144 0.071 0.074 0.07 0.07 0.075 0.144 0.07 0.075 l 0.07,-0.144 h 0.07 0.074 0.071 0.144 0.075 0.07 0.07 0.074 0.071 0.144 0.074 l 0.071,-0.075 h 0.07 0.074 0.071 0.144 0.074 0.071 0.07 0.074 0.071 0.144 0.074 l 0.071,-0.07 h 0.074 0.07 0.07 0.075 0.144 0.071 0.074 0.07 0.07 0.075 0.144 0.07 l 0.075,-0.07 h 0.07 0.07 0.074 0.145 0.07 0.075 0.07 0.07 0.074 0.145 0.07 l 0.074,-0.075 h 0.071 0.07 0.074 0.071 0.144 0.074 0.071 0.07 0.074 0.07 0.145 0.074 0.071 l 0.074,-0.07 h 0.07 0.07 0.145 0.074 0.07 0.075 0.07 0.07 0.145 0.074 0.07 0.075 0.07 l 0.07,-0.144 h 0.074 0.145 0.07 0.075 0.07 0.07 0.074 0.145 0.07 0.074 0.071 0.07 0.074 l 0.145,-0.075 h 0.07 0.074 0.071 0.07 0.074 0.145 0.07 0.074 0.071 0.074 0.07 0.07 0.145 l 0.074,-0.07 h 0.07 0.075 0.07 0.07 0.145 0.074 0.07 0.075 0.07 0.07 0.145 0.074 0.07 0.074 0.071 l 0.07,-0.07 h 0.145 0.074 0.07 0.074 0.071 0.07 0.074 0.145 0.07 0.074 0.071 0.074 0.07 0.145 0.07 l 0.074,-0.074 h 0.071 0.074 0.07 0.145 0.07 0.074 0.07 0.075 0.07 0.144 0.071 0.074 0.07 0.075 0.07 l 0.07,-0.071 h 0.145 0.074 0.07 0.074 0.071 0.07 0.145 0.074 0.07 0.074 0.071 0.07 0.144 0.075 0.07 0.074 l 0.071,-0.074 h 0.074 0.14 0.075 0.07 0.074 0.07 0.075 0.07 0.145 0.07"
       inkscape:connector-curvature="0" />
    <path
       style="fill:none;stroke:#e18926;stroke-linejoin:round;stroke-opacity:1"
       id="path2727"
       d="m 305.82,96.785 h 0.071 0.074 0.07 l 0.145,-0.07 h 0.07 0.074 0.071 l 0.074,-0.074 h 0.07 0.074 0.145 0.07 l 0.07,-0.071 h 0.075 0.07 0.074 l 0.145,-0.074 h 0.07 0.07 0.075 0.07 l 0.074,-0.144 h 0.145 0.07 0.07 l 0.074,-0.071 h 0.071 0.074 0.145 0.07 l 0.07,-0.07 h 0.074 0.071 0.074 0.07 l 0.145,-0.074 h 0.07 0.074 0.071 l 0.074,-0.071 h 0.07 0.145 0.07 0.074 l 0.07,-0.074 h 0.075 0.07 0.145 0.074 l 0.07,-0.144 h 0.07 0.075 0.07 0.144 l 0.075,-0.071 h 0.07 0.07 0.075 0.07 l 0.074,-0.074 h 0.145 0.07 0.07 0.074 l 0.071,-0.07 h 0.074 0.145 0.07 0.07 l 0.074,-0.071 h 0.071 0.074 0.144 0.071 l 0.07,-0.074 h 0.074 0.071 0.074 0.144 l 0.071,-0.07 h 0.07 0.074 0.07 0.075 l 0.07,-0.145 h 0.145 0.074 0.07 0.07 l 0.075,-0.074 h 0.07 0.144 0.075 0.07 0.07 l 0.074,-0.07 h 0.071 0.144 0.075 0.07 l 0.07,-0.07 h 0.074 0.071 0.144 0.074 0.071 l 0.07,-0.075 h 0.074 0.071 0.074 0.144 l 0.071,-0.07 h 0.07 0.074 0.071 0.074 0.144 l 0.071,-0.144 h 0.074 0.07 0.07 0.075 l 0.144,-0.075 h 0.071 0.074 0.07 0.07 0.075 l 0.144,-0.07 h 0.07 0.075 0.07 0.07 0.074 l 0.071,-0.07 h 0.144 0.075 0.07 0.07 0.074 l 0.071,-0.075 h 0.144 0.074 0.071 0.07 0.074 l 0.071,-0.07 h 0.144 0.074 0.071 0.07 0.074 l 0.07,-0.144 h 0.145 0.074 0.071 0.074 0.07 l 0.07,-0.075 h 0.075 0.144 0.07 0.075 0.07 0.07 l 0.075,-0.07 h 0.144 0.07 0.075 0.07 0.07 l 0.074,-0.07 h 0.145 0.07 0.075 0.07 0.07 0.074 l 0.145,-0.074 h 0.07 0.074 0.071 0.07 0.074 l 0.071,-0.071 h 0.144 0.074 0.071 0.07 0.074 0.07 l 0.145,-0.144 h 0.074 0.071 0.074 0.07 0.07 0.145 l 0.074,-0.074 h 0.07 0.075 0.07 0.07 0.145 l 0.074,-0.071 h 0.07 0.075 0.07 0.07 0.074 0.145 l 0.07,-0.07 h 0.074 0.071 0.07 0.074 0.145 0.07 0.074 l 0.071,-0.074 h 0.07 0.074 0.145 0.07 0.074 0.071 l 0.074,-0.071 h 0.07 0.145 0.07 0.074 0.071 0.074 l 0.07,-0.074 h 0.145 0.07 0.074 0.07 0.075 0.07 0.07 l 0.145,-0.144 h 0.074 0.07 0.075 0.07 0.07 0.145 l 0.074,-0.071 h 0.07 0.074 0.071 0.07 0.145 0.074 0.07 l 0.074,-0.07 h 0.071 0.07 0.144 0.075 0.07 0.074 0.071 l 0.074,-0.074 h 0.07 0.145 0.07 0.074 0.07 0.075 0.07 l 0.145,-0.071 h 0.07 0.074 0.07 0.075 0.07 0.144 0.071 l 0.074,-0.074 h 0.07 0.075 0.07 0.144 0.071 0.074 0.07 0.074 l 0.071,-0.144 h 0.07 0.145 0.074 0.07 0.074 0.071 0.07 l 0.144,-0.071 h 0.075"
       inkscape:connector-curvature="0" />
    <path
       style="fill:none;stroke:#e18926;stroke-linejoin:round;stroke-opacity:1"
       id="path2729"
       d="m 280.906,104.922 h 0.074 l 0.071,-0.145 h 0.074 l 0.07,-0.074 h 0.145 l 0.07,-0.07 h 0.074 0.071 l 0.074,-0.071 h 0.07 l 0.145,-0.074 h 0.07 0.074 l 0.071,-0.07 h 0.074 l 0.07,-0.145 h 0.145 l 0.07,-0.074 h 0.074 0.07 l 0.075,-0.07 h 0.07 l 0.074,-0.07 h 0.145 l 0.07,-0.075 h 0.07 0.075 l 0.07,-0.07 h 0.074 l 0.145,-0.144 h 0.07 0.07 l 0.075,-0.075 h 0.07 l 0.074,-0.07 h 0.145 0.07 l 0.07,-0.07 h 0.074 l 0.071,-0.075 h 0.074 0.145 l 0.07,-0.07 h 0.07 l 0.074,-0.144 h 0.071 0.074 l 0.07,-0.075 h 0.145 l 0.07,-0.07 h 0.074 0.071 l 0.074,-0.07 h 0.07 0.145 l 0.07,-0.074 h 0.074 l 0.07,-0.071 h 0.075 0.07 l 0.145,-0.074 h 0.074 l 0.07,-0.144 h 0.07 0.075 l 0.07,-0.071 h 0.144 0.075 l 0.07,-0.07 h 0.07 l 0.074,-0.074 h 0.071 0.074 l 0.145,-0.071 h 0.07 0.07 l 0.074,-0.074 h 0.071 l 0.074,-0.144 h 0.144 0.071 l 0.07,-0.071 h 0.074 0.071 l 0.074,-0.07 h 0.144 l 0.071,-0.074 h 0.07 0.074 l 0.071,-0.071 h 0.074 0.144 l 0.071,-0.074 h 0.074 0.07 l 0.07,-0.144 h 0.075 0.07 l 0.145,-0.071 h 0.074 l 0.07,-0.074 h 0.07 0.075 l 0.07,-0.07 h 0.144 0.075 l 0.07,-0.07 h 0.07 0.074 l 0.071,-0.075 h 0.144 0.075 l 0.07,-0.144 h 0.07 0.074 l 0.071,-0.071 h 0.144 0.074 l 0.071,-0.074 h 0.07 0.074 l 0.071,-0.07 h 0.074 0.144 l 0.071,-0.07 h 0.07 l 0.074,-0.075 h 0.07 0.075 0.144 l 0.071,-0.144 h 0.074 0.07 l 0.07,-0.07 h 0.075 0.144 l 0.07,-0.075 h 0.075 0.07 l 0.07,-0.07 h 0.075 0.144 l 0.07,-0.07 h 0.075 0.07 l 0.07,-0.075 h 0.074 0.145 l 0.07,-0.07 h 0.075 0.07 l 0.07,-0.144 h 0.074 0.071 l 0.144,-0.075 h 0.074 0.071 l 0.07,-0.07 h 0.074 0.071 0.144 l 0.074,-0.07 h 0.071 0.07 l 0.074,-0.074 h 0.07 0.145 l 0.074,-0.071 h 0.071 0.074 l 0.07,-0.144 h 0.07 0.145 0.074 l 0.07,-0.074 h 0.075 0.07 l 0.07,-0.071 h 0.074 0.145 l 0.07,-0.07 h 0.075 0.07 0.07 l 0.074,-0.074 h 0.145 0.07 l 0.074,-0.071 h 0.071 0.07 l 0.074,-0.144 h 0.145 0.07 0.074 l 0.071,-0.074 h 0.07 0.074 l 0.145,-0.071 h 0.07 0.074 0.071 l 0.074,-0.07 h 0.07 0.07 l 0.145,-0.074 h 0.074 0.071 0.074 l 0.07,-0.071 h 0.07 0.145 l 0.074,-0.144 h 0.07 0.075 0.07 l 0.07,-0.074 h 0.145 0.074 0.07 l 0.075,-0.071 h 0.07 0.07 l 0.145,-0.074 h 0.074 0.07 0.074 l 0.071,-0.07 h 0.07 0.074 0.145 l 0.07,-0.07 h 0.074 0.071 l 0.07,-0.075 h 0.074 0.145 0.07 l 0.074,-0.144 h 0.071 0.074 0.07 l 0.145,-0.07 h 0.07 0.074 0.07 l 0.075,-0.075 h 0.07 0.145 l 0.07,-0.07 h 0.074 0.07 0.075 l 0.07,-0.07 h 0.07 0.145 0.074 l 0.07,-0.075 h 0.075 0.07 0.07 l 0.145,-0.144 h 0.074 0.07 0.074 l 0.071,-0.07 h 0.07 0.145 0.074 l 0.07,-0.075 h 0.074 0.071 0.07 l 0.144,-0.07 h 0.075 0.07 0.074 l 0.071,-0.07 h 0.074 0.07 0.145 0.07 l 0.074,-0.074 h 0.07 0.075 0.07 L 304.812,97 h 0.071 0.074 0.07 l 0.075,-0.07 h 0.07 0.144 0.071 l 0.074,-0.075 h 0.07 0.074 0.071 0.144 l 0.071,-0.07"
       inkscape:connector-curvature="0" />
    <path
       style="fill:none;stroke:#e18926;stroke-linejoin:round;stroke-opacity:1"
       id="path2731"
       d="m 255.996,118.961 h 0.07 l 0.075,-0.07 0.07,-0.075 h 0.074 l 0.145,-0.07 0.07,-0.144 h 0.07 l 0.075,-0.075 0.07,-0.07 0.074,-0.07 h 0.07 l 0.145,-0.075 0.07,-0.07 h 0.074 l 0.071,-0.074 0.074,-0.145 h 0.07 l 0.145,-0.07 0.07,-0.07 h 0.074 l 0.071,-0.074 0.074,-0.071 h 0.07 l 0.145,-0.074 0.07,-0.144 0.074,-0.071 h 0.071 l 0.074,-0.07 0.07,-0.074 h 0.145 l 0.07,-0.071 0.074,-0.074 h 0.07 l 0.075,-0.144 0.07,-0.071 h 0.145 l 0.074,-0.07 0.07,-0.074 h 0.07 l 0.075,-0.071 0.07,-0.074 h 0.074 l 0.145,-0.144 0.07,-0.071 h 0.07 l 0.074,-0.074 0.071,-0.07 h 0.074 l 0.145,-0.07 0.07,-0.075 h 0.07 l 0.074,-0.07 0.071,-0.144 h 0.074 l 0.144,-0.075 0.071,-0.07 h 0.07 l 0.074,-0.07 0.071,-0.075 h 0.074 l 0.144,-0.07 0.071,-0.144 h 0.07 l 0.074,-0.075 h 0.071 l 0.074,-0.07 0.07,-0.07 h 0.145 l 0.074,-0.074 0.07,-0.071 h 0.07 l 0.075,-0.144 0.07,-0.075 h 0.145 l 0.074,-0.07 0.07,-0.07 h 0.07 l 0.075,-0.074 h 0.07 l 0.144,-0.071 0.075,-0.144 h 0.07 l 0.07,-0.074 0.074,-0.071 h 0.071 l 0.144,-0.07 0.075,-0.074 h 0.07 l 0.07,-0.071 h 0.074 l 0.071,-0.144 0.074,-0.074 h 0.144 l 0.071,-0.071 h 0.07 l 0.074,-0.074 0.071,-0.07 h 0.074 l 0.144,-0.071 0.071,-0.074 h 0.07 l 0.074,-0.144 h 0.07 l 0.075,-0.071 0.144,-0.074 h 0.071 l 0.074,-0.07 h 0.07 l 0.07,-0.07 0.075,-0.075 h 0.144 l 0.07,-0.144 h 0.075 l 0.07,-0.07 0.07,-0.075 h 0.075 l 0.07,-0.07 h 0.144 l 0.075,-0.07 0.07,-0.075 h 0.07 l 0.074,-0.144 h 0.071 l 0.144,-0.07 0.075,-0.075 h 0.07 l 0.07,-0.07 h 0.074 l 0.071,-0.07 0.144,-0.074 h 0.074 l 0.071,-0.145 h 0.07 l 0.074,-0.07 h 0.071 l 0.144,-0.074 h 0.074 l 0.071,-0.071 0.07,-0.07 h 0.074 l 0.07,-0.074 h 0.075 l 0.144,-0.071 0.071,-0.144 h 0.074 l 0.07,-0.074 h 0.07 l 0.075,-0.071 h 0.144 l 0.07,-0.07 0.075,-0.074 h 0.07 l 0.07,-0.071 h 0.074 l 0.145,-0.144 h 0.07 l 0.075,-0.074 h 0.07 l 0.07,-0.071 0.074,-0.074 h 0.145 l 0.07,-0.07 h 0.074 l 0.071,-0.07 h 0.07 l 0.074,-0.145 h 0.071 l 0.144,-0.074 0.074,-0.071 h 0.071 l 0.07,-0.074 h 0.074 l 0.071,-0.07 h 0.144 l 0.074,-0.07 h 0.071 l 0.074,-0.145 h 0.07 l 0.07,-0.074 h 0.145 l 0.074,-0.07 0.071,-0.075 h 0.074 l 0.07,-0.07 h 0.07 l 0.145,-0.07 h 0.074 l 0.07,-0.075 h 0.075 l 0.07,-0.144 h 0.07 l 0.074,-0.07 h 0.145 l 0.07,-0.075 h 0.075 l 0.07,-0.07 h 0.07 l 0.074,-0.07 h 0.145 l 0.07,-0.074 0.074,-0.145 h 0.071 l 0.07,-0.07 h 0.074 l 0.145,-0.074 h 0.07 l 0.074,-0.071 h 0.071 l 0.07,-0.07 h 0.074 l 0.145,-0.074 h 0.07 l 0.074,-0.145 h 0.071 l 0.074,-0.07 h 0.07 l 0.07,-0.074 h 0.145 l 0.074,-0.071 h 0.07 l 0.075,-0.07 h 0.07 l 0.07,-0.074 h 0.145 l 0.074,-0.145 h 0.07 l 0.075,-0.07 h 0.07 l 0.07,-0.074 h 0.145 l 0.074,-0.071 h 0.07 l 0.075,-0.074 h 0.07 l 0.07,-0.07 h 0.145 l 0.074,-0.07 h 0.07 l 0.074,-0.145 h 0.071 0.07 l 0.074,-0.074 0.145,-0.07 h 0.07 0.074 l 0.071,-0.075 h 0.07 l 0.074,-0.07 h 0.145 l 0.07,-0.07 h 0.074 l 0.071,-0.145 h 0.074 l 0.07,-0.074 h 0.145 l 0.07,-0.07 h 0.074 l 0.07,-0.075 h 0.075 0.07 l 0.144,-0.07 h 0.071 l 0.074,-0.07 h 0.07 l 0.075,-0.145 h 0.07 l 0.07,-0.074 h 0.145 l 0.074,-0.07 h 0.07 l 0.074,-0.075 h 0.071 0.07 l 0.145,-0.07 h 0.074 l 0.07,-0.07 h 0.074 l 0.071,-0.145 h 0.07 l 0.145,-0.074 h 0.074 l 0.07,-0.07 h 0.074 0.071 l 0.074,-0.074 h 0.14 l 0.075,-0.071 h 0.07 l 0.074,-0.07 h 0.071 0.074 l 0.14,-0.074 h 0.075 l 0.07,-0.145 h 0.074 l 0.07,-0.07 h 0.075 l 0.07,-0.074 h 0.144"
       inkscape:connector-curvature="0" />
    <path
       style="fill:none;stroke:#e18926;stroke-linejoin:round;stroke-opacity:1"
       id="path2733"
       d="m 231.301,139.625 0.07,-0.07 0.074,-0.075 h 0.141 l 0.074,-0.07 0.07,-0.074 0.075,-0.145 0.07,-0.07 0.074,-0.07 0.145,-0.074 0.07,-0.071 0.07,-0.074 0.075,-0.144 0.07,-0.071 0.074,-0.07 0.145,-0.074 0.07,-0.071 h 0.07 l 0.145,-0.218 h -0.071 0.071 l 0.074,-0.071 0.145,-0.07 0.07,-0.074 0.07,-0.071 0.074,-0.074 0.071,-0.144 0.074,-0.071 0.07,-0.074 0.145,-0.07 0.07,-0.07 0.074,-0.075 0.071,-0.07 h 0.074 l 0.07,-0.145 0.145,-0.074 0.07,-0.07 0.074,-0.07 0.071,-0.075 0.074,-0.07 0.07,-0.144 0.145,-0.075 0.074,-0.07 0.07,-0.07 0.07,-0.075 0.075,-0.07 0.07,-0.144 h 0.145 l 0.074,-0.075 0.07,-0.07 0.07,-0.07 0.075,-0.074 0.07,-0.071 0.074,-0.144 0.145,-0.074 0.07,-0.071 0.07,-0.07 0.074,-0.074 h 0.071 l 0.074,-0.071 0.145,-0.144 0.07,-0.074 0.07,-0.071 0.074,-0.07 0.071,-0.074 0.074,-0.071 0.144,-0.074 0.071,-0.144 h 0.07 l 0.074,-0.071 0.071,-0.074 0.074,-0.07 0.144,-0.07 0.071,-0.075 0.07,-0.144 0.074,-0.07 0.07,-0.075 0.075,-0.07 h 0.07 l 0.145,-0.07 0.074,-0.075 0.07,-0.144 0.07,-0.07 0.075,-0.075 0.07,-0.07 0.144,-0.07 0.075,-0.074 h 0.07 l 0.145,-0.215 h -0.075 0.075 l 0.07,-0.075 0.144,-0.07 0.075,-0.07 0.07,-0.074 0.07,-0.071 0.074,-0.144 h 0.071 l 0.219,-0.145 h -0.075 0.075 l 0.07,-0.07 0.07,-0.074 0.074,-0.071 0.071,-0.144 0.074,-0.074 0.144,-0.071 h 0.071 l 0.07,-0.074 0.074,-0.07 0.071,-0.071 0.074,-0.144 0.144,-0.074 0.071,-0.071 0.07,-0.074 h 0.074 l 0.07,-0.07 0.075,-0.07 0.144,-0.145 0.071,-0.074 0.074,-0.07 0.07,-0.075 0.07,-0.07 h 0.075 l 0.144,-0.07 0.07,-0.075 0.075,-0.144 0.07,-0.07 0.07,-0.075 0.074,-0.07 h 0.071 l 0.144,-0.07 0.075,-0.074 0.07,-0.145 0.07,-0.07 0.074,-0.074 0.071,-0.071 h 0.144 l 0.074,-0.07 0.071,-0.074 0.07,-0.145 0.074,-0.07 0.071,-0.074 0.144,-0.071 h 0.074 l 0.071,-0.07 0.07,-0.074 0.074,-0.145 0.071,-0.07 0.144,-0.074 h 0.074 l 0.071,-0.071 0.074,-0.074 0.07,-0.07 0.07,-0.07 0.075,-0.145 0.144,-0.074 h 0.071 l 0.074,-0.071 0.07,-0.074 0.07,-0.07 0.075,-0.07 0.144,-0.145 h 0.07 l 0.075,-0.074 0.07,-0.07 0.07,-0.075 0.074,-0.07 h 0.145 l 0.07,-0.07 0.075,-0.145 0.07,-0.074 0.07,-0.07 0.074,-0.075 h 0.145 l 0.07,-0.07 0.074,-0.07 0.071,-0.145 0.07,-0.074 0.074,-0.07 h 0.071 l 0.144,-0.074 0.074,-0.071 0.071,-0.07 0.07,-0.074 h 0.074 l 0.07,-0.145 0.145,-0.07 0.074,-0.074 0.071,-0.071 0.074,-0.07 h 0.07 l 0.07,-0.074 0.145,-0.145 0.074,-0.07 0.07,-0.074 h 0.075 l 0.07,-0.071 0.07,-0.074 0.145,-0.07 0.074,-0.145 h 0.07 l 0.075,-0.07 0.07,-0.074 0.07,-0.07 0.074,-0.075 h 0.145 l 0.07,-0.07 0.075,-0.145 0.07,-0.07 0.07,-0.074 h 0.074 l 0.145,-0.07 0.07,-0.075 0.074,-0.07 0.071,-0.07 h 0.07 l 0.074,-0.145 0.145,-0.074 0.07,-0.07 h 0.074 l 0.071,-0.075 0.07,-0.07 0.074,-0.07 0.145,-0.145 h 0.07 l 0.074,-0.074 0.071,-0.07 0.074,-0.074 h 0.07 l 0.07,-0.071 0.145,-0.07 0.074,-0.145 0.07,-0.074 h 0.075 l 0.07,-0.07 0.07,-0.074 0.145,-0.071 h 0.074 l 0.07,-0.074 0.075,-0.141 0.07,-0.074 h 0.07 l 0.145,-0.07 0.074,-0.074 0.07,-0.071 h 0.074 l 0.071,-0.074 0.07,-0.07 0.145,-0.145 0.074,-0.07 h 0.07 l 0.074,-0.074 0.071,-0.07 0.07,-0.075 h 0.145 l 0.074,-0.07 0.07,-0.145 0.074,-0.07 h 0.071 l 0.074,-0.074 0.07,-0.07 0.145,-0.075 h 0.07 l 0.074,-0.07 0.071,-0.144 0.074,-0.071 h 0.07 l 0.145,-0.074 0.07,-0.07 h 0.074 l 0.07,-0.074 0.075,-0.071 0.07,-0.144 h 0.144 l 0.071,-0.071 0.074,-0.074 0.07,-0.07 h 0.075 l 0.07,-0.074 0.144,-0.071 h 0.071 l 0.074,-0.07 0.07,-0.145 0.074,-0.074 h 0.071 l 0.07,-0.07 0.145,-0.074 0.074,-0.071 h 0.07 l 0.074,-0.074 0.071,-0.14 h 0.07 l 0.144,-0.075 0.075,-0.07 0.07,-0.074 h 0.074 l 0.071,-0.071 0.074,-0.074 0.14,-0.14"
       inkscape:connector-curvature="0" />
    <path
       style="fill:none;stroke:#e18926;stroke-linejoin:round;stroke-opacity:1"
       id="path2735"
       d="m 206.387,163.891 0.074,-0.075 0.07,-0.07 h 0.145 l 0.144,-0.219 v -0.07 h 0.071 l 0.074,-0.07 0.07,-0.075 0.074,-0.07 0.141,-0.074 0.074,-0.145 0.071,-0.07 0.074,-0.07 0.07,-0.074 0.074,-0.071 0.145,-0.074 0.07,-0.144 0.07,-0.071 0.075,-0.07 0.07,-0.074 0.074,-0.071 0.145,-0.074 0.07,-0.144 0.07,-0.071 0.075,-0.07 0.07,-0.074 0.074,-0.071 0.145,-0.074 h 0.07 l 0.144,-0.215 v -0.074 l 0.071,-0.07 h 0.074 l 0.07,-0.07 0.145,-0.075 0.07,-0.07 0.074,-0.144 0.071,-0.075 0.074,-0.07 0.07,-0.07 0.145,-0.075 0.07,-0.07 0.074,-0.144 0.071,-0.075 0.074,-0.07 0.07,-0.07 0.145,-0.074 0.07,-0.071 0.074,-0.144 0.07,-0.075 0.075,-0.07 0.07,-0.07 0.145,-0.074 0.074,-0.071 0.07,-0.144 0.07,-0.074 0.075,-0.071 0.07,-0.07 0.074,-0.074 0.145,-0.071 0.07,-0.074 0.07,-0.144 0.075,-0.071 0.07,-0.074 0.074,-0.07 0.145,-0.071 0.07,-0.074 0.07,-0.144 0.074,-0.071 h 0.071 l 0.074,-0.074 0.145,-0.07 0.07,-0.07 0.07,-0.075 0.074,-0.144 0.071,-0.07 0.074,-0.075 0.144,-0.07 0.071,-0.07 0.07,-0.075 0.074,-0.144 0.071,-0.07 0.074,-0.075 0.07,-0.07 0.145,-0.07 0.07,-0.074 0.074,-0.071 0.07,-0.144 0.075,-0.074 0.07,-0.071 0.145,-0.07 0.074,-0.074 0.07,-0.071 0.07,-0.144 0.075,-0.074 0.07,-0.071 0.144,-0.07 0.075,-0.074 0.07,-0.071 0.07,-0.144 0.074,-0.074 0.071,-0.071 0.144,-0.074 0.075,-0.07 0.07,-0.07 0.07,-0.145 0.074,-0.074 0.071,-0.071 0.074,-0.074 0.144,-0.07 0.071,-0.07 0.07,-0.075 0.074,-0.144 0.071,-0.07 0.074,-0.075 0.144,-0.07 0.071,-0.07 0.07,-0.075 0.074,-0.144 0.071,-0.07 0.074,-0.075 0.144,-0.07 0.071,-0.07 h 0.074 l 0.07,-0.074 0.145,-0.215 v -0.074 l 0.144,-0.071 h 0.071 l 0.074,-0.07 0.07,-0.074 0.07,-0.145 0.075,-0.07 0.07,-0.074 0.144,-0.071 0.075,-0.07 0.07,-0.074 0.07,-0.071 0.074,-0.144 0.071,-0.074 0.144,-0.071 0.075,-0.074 0.07,-0.07 0.07,-0.07 0.074,-0.145 0.071,-0.074 0.144,-0.07 0.074,-0.075 0.071,-0.07 0.07,-0.07 0.074,-0.145 0.071,-0.074 0.144,-0.07 0.074,-0.075 0.071,-0.07 0.07,-0.07 0.074,-0.145 0.07,-0.074 0.075,-0.07 0.144,-0.075 0.071,-0.07 0.074,-0.07 0.07,-0.145 0.07,-0.074 0.075,-0.07 0.144,-0.074 0.07,-0.071 0.075,-0.07 0.07,-0.074 0.07,-0.145 0.075,-0.07 0.144,-0.074 0.07,-0.071 0.075,-0.074 0.07,-0.07 0.07,-0.145 0.074,-0.07 0.145,-0.074 0.07,-0.071 0.075,-0.074 0.07,-0.07 0.07,-0.145 0.074,-0.07 0.145,-0.074 0.07,-0.07 h 0.074 l 0.141,-0.145 v -0.145 l 0.074,-0.07 h 0.071 l 0.144,-0.074 0.074,-0.07 0.071,-0.075 0.07,-0.07 0.074,-0.07 0.07,-0.145 0.145,-0.074 0.074,-0.07 0.071,-0.074 0.074,-0.071 0.07,-0.07 0.07,-0.145 0.145,-0.074 0.074,-0.07 0.07,-0.074 0.075,-0.071 0.07,-0.07 0.07,-0.145 0.145,-0.074 0.074,-0.07 0.07,-0.074 0.075,-0.071 0.07,-0.074 0.07,-0.14 0.074,-0.075 0.145,-0.07 0.07,-0.074 0.074,-0.071 0.071,-0.074 0.07,-0.07 0.074,-0.145 0.145,-0.07 0.07,-0.074 0.074,-0.07 0.071,-0.075 0.07,-0.07 0.074,-0.145 0.145,-0.07 h 0.07 l 0.145,-0.144 v -0.075 l 0.074,-0.07 h 0.07 l 0.145,-0.144 0.07,-0.071 0.074,-0.074 0.071,-0.07 0.074,-0.074 0.07,-0.071 0.07,-0.144 0.145,-0.071 0.074,-0.074 0.07,-0.07 0.075,-0.074 0.07,-0.071 0.07,-0.07 0.145,-0.145 0.074,-0.074 0.07,-0.07 0.075,-0.074 0.07,-0.071 0.07,-0.074 0.145,-0.14 0.074,-0.075 0.07,-0.07 0.074,-0.074 0.071,-0.07 0.07,-0.075 0.145,-0.14 h 0.074 l 0.07,-0.075 0.074,-0.07 0.071,-0.074 0.07,-0.07 0.074,-0.075 0.145,-0.14 0.07,-0.074 0.074,-0.071 0.071,-0.074 0.074,-0.07 0.07,-0.075 0.145,-0.07 0.07,-0.144 0.074,-0.071 0.07,-0.074 0.075,-0.07 0.07,-0.074 0.145,-0.071 0.07,-0.144 0.074,-0.071 h 0.07 l 0.145,-0.144 v -0.074 h 0.144 l 0.071,-0.071 0.074,-0.144 0.07,-0.071 0.075,-0.074 0.07,-0.07 0.07,-0.074 0.145,-0.071 0.074,-0.144 0.07,-0.07 0.074,-0.075 0.071,-0.07 0.07,-0.074 0.145,-0.07 0.074,-0.075 0.07,-0.14"
       inkscape:connector-curvature="0" />
    <path
       style="fill:none;stroke:#e18926;stroke-linejoin:round;stroke-opacity:1"
       id="path2737"
       d="m 181.547,185.273 0.074,-0.074 0.07,-0.07 0.145,-0.07 h 0.07 l 0.074,-0.075 0.071,-0.07 0.074,-0.144 h 0.07 l 0.145,-0.075 0.07,-0.07 0.074,-0.07 h 0.071 l 0.074,-0.075 0.07,-0.07 0.145,-0.144 h 0.07 l 0.074,-0.075 0.071,-0.07 0.074,-0.07 h 0.07 l 0.074,-0.074 0.141,-0.071 0.074,-0.074 h 0.07 l 0.075,-0.144 0.07,-0.071 0.074,-0.07 h 0.145 l 0.07,-0.074 0.07,-0.071 0.075,-0.074 h 0.07 l 0.074,-0.144 0.145,-0.071 0.07,-0.07 0.07,-0.074 h 0.075 l 0.07,-0.071 0.074,-0.074 0.07,-0.144 h 0.145 l 0.07,-0.071 0.074,-0.074 0.071,-0.07 h 0.074 l 0.07,-0.07 0.145,-0.075 0.07,-0.144 0.074,-0.071 h 0.071 l 0.074,-0.074 0.07,-0.07 0.145,-0.07 0.07,-0.075 h 0.074 l 0.071,-0.07 0.074,-0.144 0.07,-0.075 0.145,-0.07 h 0.07 l 0.074,-0.07 0.07,-0.075 0.075,-0.07 h 0.07 l 0.074,-0.144 0.145,-0.075 0.07,-0.07 0.07,-0.07 h 0.075 l 0.07,-0.074 0.074,-0.071 0.145,-0.144 0.07,-0.074 h 0.07 l 0.074,-0.071 0.071,-0.07 0.074,-0.074 0.145,-0.071 h 0.07 l 0.07,-0.144 0.074,-0.074 0.071,-0.071 0.074,-0.07 h 0.07 l 0.145,-0.074 0.07,-0.071 0.074,-0.074 0.071,-0.144 0.074,-0.071 h 0.07 l 0.145,-0.074 0.07,-0.07 0.074,-0.07 0.071,-0.075 0.074,-0.144 h 0.07 l 0.145,-0.07 0.074,-0.075 0.07,-0.07 0.07,-0.07 h 0.075 l 0.07,-0.075 0.074,-0.144 0.145,-0.07 0.07,-0.075 0.07,-0.07 h 0.075 l 0.07,-0.07 0.074,-0.074 0.145,-0.145 0.07,-0.07 0.07,-0.075 h 0.074 l 0.071,-0.07 0.074,-0.07 0.145,-0.074 0.07,-0.071 0.07,-0.144 h 0.074 l 0.071,-0.074 0.074,-0.071 0.07,-0.07 0.145,-0.074 0.07,-0.071 0.074,-0.144 h 0.071 l 0.074,-0.074 0.07,-0.071 0.145,-0.074 0.07,-0.07 0.074,-0.071 0.07,-0.144 h 0.075 l 0.07,-0.074 0.145,-0.071 0.074,-0.074 0.07,-0.07 0.07,-0.07 0.075,-0.145 h 0.07 l 0.074,-0.074 0.145,-0.07 0.07,-0.075 0.07,-0.07 0.075,-0.07 0.07,-0.075 h 0.074 l 0.145,-0.144 0.07,-0.07 0.07,-0.075 0.074,-0.07 0.071,-0.07 0.074,-0.074 0.145,-0.145 h 0.07 l 0.07,-0.07 0.074,-0.074 0.071,-0.071 0.074,-0.07 0.07,-0.074 0.145,-0.145 h 0.07 l 0.074,-0.07 0.071,-0.074 0.074,-0.071 0.07,-0.07 0.145,-0.074 0.07,-0.145 0.074,-0.07 h 0.07 l 0.075,-0.074 0.07,-0.071 0.145,-0.074 0.074,-0.07 0.07,-0.07 0.07,-0.145 0.075,-0.074 0.07,-0.071 h 0.074 l 0.145,-0.074 0.07,-0.07 0.07,-0.07 0.074,-0.145 0.071,-0.074 0.074,-0.07 0.145,-0.075 0.07,-0.07 h 0.07 l 0.074,-0.07 0.071,-0.145 0.074,-0.074 0.144,-0.07 0.071,-0.075 0.07,-0.07 0.074,-0.07 0.071,-0.145 0.074,-0.074 0.07,-0.07 h 0.145 l 0.07,-0.074 0.074,-0.071 0.071,-0.07 0.074,-0.074 0.07,-0.145 0.145,-0.07 0.074,-0.074 0.07,-0.071 0.07,-0.07 h 0.075 l 0.07,-0.074 0.145,-0.145 0.074,-0.07 0.07,-0.074 0.07,-0.071 0.075,-0.074 0.07,-0.07 0.074,-0.145 0.145,-0.07 0.07,-0.074 h 0.07 l 0.074,-0.07 0.071,-0.075 0.074,-0.07 0.145,-0.145 0.07,-0.07 0.07,-0.074 0.074,-0.07 0.071,-0.075 0.074,-0.07 0.144,-0.144 0.071,-0.071 h 0.07 l 0.145,-0.144 h -0.071 0.071 l 0.074,-0.075 0.144,-0.07 0.071,-0.07 0.07,-0.145 0.074,-0.074 0.07,-0.07 0.075,-0.074 0.07,-0.071 0.145,-0.07 0.074,-0.145 0.07,-0.074 0.07,-0.07 h 0.075 l 0.07,-0.074 0.144,-0.071 0.075,-0.074 0.07,-0.141 0.07,-0.074 0.075,-0.07 0.07,-0.074 0.144,-0.071 0.075,-0.074 0.07,-0.14 0.07,-0.075 0.074,-0.07 0.071,-0.074 0.074,-0.07 0.145,-0.075 h 0.07 l 0.07,-0.07 0.074,-0.145 0.071,-0.07 0.074,-0.074 0.144,-0.07 0.071,-0.075 0.07,-0.07 0.074,-0.144 0.071,-0.071 0.074,-0.074 0.144,-0.07 0.071,-0.074 0.07,-0.071 0.074,-0.144 0.07,-0.071 0.075,-0.074 h 0.07 l 0.145,-0.07 0.074,-0.074 0.07,-0.071 0.07,-0.144 0.075,-0.071 0.07,-0.074 0.144,-0.07 0.075,-0.074 0.07,-0.071 0.07,-0.074 0.074,-0.14 0.071,-0.075 0.144,-0.07 0.075,-0.074 0.07,-0.071 0.07,-0.074 0.074,-0.14 0.071,-0.075"
       inkscape:connector-curvature="0" />
    <path
       style="fill:none;stroke:#e18926;stroke-linejoin:round;stroke-opacity:1"
       id="path2739"
       d="m 156.637,200.031 h 0.07 l 0.074,-0.07 h 0.145 l 0.07,-0.07 h 0.07 l 0.075,-0.075 h 0.07 0.074 l 0.145,-0.07 h 0.07 l 0.07,-0.144 h 0.075 l 0.07,-0.075 h 0.074 l 0.07,-0.07 h 0.145 l 0.07,-0.07 h 0.074 l 0.071,-0.075 h 0.074 l 0.07,-0.07 h 0.145 l 0.07,-0.074 h 0.074 0.071 l 0.074,-0.145 h 0.07 l 0.145,-0.07 h 0.07 l 0.074,-0.07 h 0.071 l 0.074,-0.074 h 0.07 l 0.074,-0.071 h 0.141 l 0.074,-0.074 h 0.07 l 0.075,-0.144 h 0.07 l 0.074,-0.071 h 0.145 l 0.07,-0.07 h 0.07 l 0.075,-0.074 h 0.07 l 0.074,-0.071 h 0.145 l 0.07,-0.074 h 0.07 l 0.074,-0.144 h 0.071 l 0.074,-0.071 h 0.07 l 0.145,-0.07 h 0.07 l 0.074,-0.074 h 0.071 l 0.074,-0.071 h 0.07 l 0.145,-0.074 h 0.07 l 0.074,-0.144 h 0.071 l 0.074,-0.071 h 0.07 l 0.145,-0.074 h 0.07 l 0.074,-0.07 h 0.071 l 0.074,-0.07 h 0.07 l 0.074,-0.075 h 0.141 l 0.074,-0.07 h 0.07 l 0.075,-0.144 0.07,-0.075 h 0.074 l 0.145,-0.07 h 0.07 l 0.07,-0.07 h 0.075 l 0.07,-0.075 h 0.074 l 0.145,-0.07 h 0.07 l 0.07,-0.144 h 0.074 l 0.071,-0.075 h 0.074 l 0.07,-0.07 0.145,-0.07 h 0.07 l 0.074,-0.074 h 0.071 l 0.074,-0.071 h 0.07 l 0.145,-0.144 h 0.07 l 0.074,-0.075 h 0.071 l 0.074,-0.07 h 0.07 l 0.145,-0.07 0.07,-0.074 h 0.074 l 0.07,-0.071 h 0.075 l 0.07,-0.144 h 0.145 l 0.074,-0.074 h 0.07 l 0.07,-0.071 0.075,-0.07 h 0.07 l 0.074,-0.074 h 0.145 l 0.07,-0.071 h 0.07 l 0.075,-0.144 h 0.07 l 0.074,-0.074 0.145,-0.071 h 0.07 l 0.07,-0.074 h 0.074 l 0.071,-0.07 h 0.074 l 0.145,-0.071 0.07,-0.074 h 0.07 l 0.074,-0.144 h 0.071 l 0.074,-0.071 0.07,-0.074 h 0.145 l 0.07,-0.07 h 0.074 l 0.071,-0.07 h 0.074 l 0.07,-0.075 0.145,-0.144 h 0.07 l 0.074,-0.07 h 0.07 l 0.075,-0.075 h 0.07 l 0.145,-0.07 0.074,-0.07 h 0.07 l 0.07,-0.075 0.075,-0.144 h 0.07 l 0.074,-0.07 h 0.145 l 0.07,-0.075 h 0.07 l 0.074,-0.07 0.071,-0.07 h 0.074 l 0.145,-0.074 h 0.07 l 0.07,-0.145 0.074,-0.07 h 0.071 l 0.074,-0.074 0.144,-0.071 h 0.071 l 0.07,-0.07 h 0.074 l 0.071,-0.074 0.074,-0.071 h 0.07 l 0.145,-0.144 h 0.07 l 0.074,-0.074 0.071,-0.071 h 0.074 l 0.07,-0.07 0.145,-0.074 h 0.074 l 0.07,-0.071 h 0.07 l 0.075,-0.144 0.07,-0.074 h 0.145 l 0.074,-0.071 0.07,-0.074 h 0.07 l 0.075,-0.07 h 0.07 l 0.074,-0.07 0.145,-0.145 h 0.07 l 0.07,-0.074 0.074,-0.071 h 0.071 l 0.074,-0.074 h 0.145 l 0.07,-0.07 0.07,-0.07 h 0.074 l 0.071,-0.145 0.074,-0.074 h 0.144 l 0.071,-0.07 0.07,-0.075 h 0.074 l 0.071,-0.07 0.074,-0.07 h 0.07 l 0.145,-0.075 0.07,-0.144 h 0.074 l 0.07,-0.07 0.075,-0.075 h 0.07 l 0.145,-0.07 0.074,-0.07 h 0.07 l 0.07,-0.074 0.075,-0.145 h 0.07 l 0.144,-0.07 h 0.075 l 0.07,-0.074 0.07,-0.071 0.075,-0.07 h 0.07 l 0.074,-0.074 0.145,-0.145 h 0.07 l 0.07,-0.07 h 0.074 l 0.071,-0.074 0.074,-0.071 0.145,-0.07 h 0.07 l 0.07,-0.074 0.074,-0.145 h 0.071 l 0.074,-0.07 0.144,-0.074 h 0.071 l 0.07,-0.071 0.074,-0.074 h 0.071 l 0.074,-0.07 0.07,-0.07 h 0.145 l 0.07,-0.145 0.074,-0.074 h 0.07 l 0.075,-0.07 0.07,-0.075 0.145,-0.07 h 0.074 l 0.07,-0.07 0.07,-0.145 h 0.075 l 0.07,-0.074 0.144,-0.07 0.075,-0.075 h 0.07 l 0.07,-0.07 0.074,-0.07 h 0.071 l 0.144,-0.145 0.075,-0.074 h 0.07 l 0.07,-0.07 0.074,-0.075 0.071,-0.07 h 0.074 l 0.144,-0.07 0.071,-0.145 h 0.07 l 0.074,-0.074 0.071,-0.07 0.074,-0.074 h 0.144 l 0.071,-0.071 0.07,-0.07 h 0.074 l 0.071,-0.074 0.074,-0.145 0.144,-0.07 h 0.071 l 0.074,-0.074 0.07,-0.071 0.07,-0.074 h 0.075 l 0.07,-0.07 0.145,-0.145 h 0.074 l 0.07,-0.07 0.07,-0.074 0.075,-0.071 h 0.07"
       inkscape:connector-curvature="0" />
    <path
       style="fill:none;stroke:#e18926;stroke-linejoin:round;stroke-opacity:1"
       id="path2741"
       d="m 131.723,208.602 h 0.074 l 0.07,-0.075 h 0.145 0.07 0.074 l 0.071,-0.07 h 0.074 0.07 0.074 l 0.141,-0.07 h 0.074 0.07 0.075 l 0.07,-0.075 h 0.074 0.145 0.07 l 0.07,-0.07 h 0.075 0.07 0.074 l 0.145,-0.074 h 0.07 0.07 l 0.074,-0.145 h 0.071 0.074 0.07 l 0.145,-0.07 h 0.07 0.074 0.071 l 0.074,-0.07 h 0.07 0.145 0.07 l 0.074,-0.074 h 0.071 0.074 0.07 l 0.145,-0.071 h 0.07 0.074 l 0.071,-0.074 h 0.074 0.07 0.074 l 0.141,-0.144 h 0.074 0.07 0.075 l 0.07,-0.071 h 0.074 0.145 l 0.07,-0.07 h 0.07 0.075 0.07 l 0.074,-0.074 h 0.145 0.07 l 0.07,-0.071 h 0.074 0.071 0.074 l 0.07,-0.074 h 0.145 0.07 l 0.074,-0.144 h 0.071 0.074 0.07 l 0.145,-0.071 h 0.07 0.074 l 0.071,-0.07 h 0.074 0.07 0.145 l 0.07,-0.074 h 0.074 0.07 l 0.075,-0.071 h 0.07 0.074 0.145 l 0.07,-0.074 h 0.07 0.075 l 0.07,-0.144 h 0.074 0.145 l 0.07,-0.071 h 0.07 0.075 0.07 l 0.074,-0.074 h 0.145 0.07 l 0.07,-0.07 h 0.074 0.071 l 0.074,-0.07 h 0.07 0.145 l 0.07,-0.075 h 0.074 0.071 0.074 l 0.07,-0.07 h 0.145 0.07 l 0.074,-0.144 h 0.071 0.074 l 0.07,-0.075 h 0.145 0.07 l 0.074,-0.07 h 0.07 0.075 l 0.07,-0.07 h 0.074 0.145 l 0.07,-0.075 h 0.07 0.075 l 0.07,-0.07 h 0.074 0.145 0.07 l 0.07,-0.144 h 0.074 0.071 l 0.074,-0.075 h 0.145 0.07 l 0.07,-0.07 h 0.074 0.071 l 0.074,-0.07 h 0.144 0.071 l 0.07,-0.074 h 0.074 0.071 l 0.074,-0.071 h 0.07 0.145 l 0.07,-0.144 h 0.074 0.071 l 0.074,-0.075 h 0.07 l 0.145,-0.07 h 0.07 0.074 l 0.07,-0.07 h 0.075 0.07 l 0.145,-0.074 h 0.074 0.07 l 0.07,-0.071 h 0.075 0.07 l 0.074,-0.144 h 0.145 0.07 l 0.07,-0.074 h 0.074 0.071 l 0.074,-0.071 h 0.145 l 0.07,-0.07 h 0.07 0.074 l 0.071,-0.074 h 0.074 0.144 l 0.071,-0.071 h 0.07 0.074 l 0.071,-0.074 h 0.074 0.07 l 0.145,-0.144 h 0.07 l 0.074,-0.071 h 0.07 0.075 l 0.07,-0.074 h 0.145 0.074 l 0.07,-0.07 h 0.07 l 0.075,-0.071 h 0.07 0.144 l 0.075,-0.074 h 0.07 0.07 l 0.075,-0.144 h 0.07 l 0.074,-0.071 h 0.145 0.07 l 0.07,-0.074 h 0.074 0.071 l 0.074,-0.07 h 0.145 l 0.07,-0.07 h 0.07 0.074 l 0.071,-0.075 h 0.074 l 0.144,-0.144 h 0.071 0.07 l 0.074,-0.07 h 0.071 l 0.074,-0.075 h 0.07 0.145 l 0.07,-0.07 h 0.074 l 0.07,-0.07 h 0.075 0.07 l 0.145,-0.075 h 0.074 l 0.07,-0.144 h 0.07 0.075 l 0.07,-0.07 h 0.144 l 0.075,-0.075 h 0.07 0.07 l 0.074,-0.07 h 0.071 l 0.074,-0.07 h 0.145 0.07 l 0.07,-0.074 h 0.074 l 0.071,-0.071 h 0.074 l 0.144,-0.144 h 0.071 0.07 l 0.074,-0.074 h 0.071 l 0.074,-0.071 h 0.144 0.071 l 0.07,-0.07 h 0.074 l 0.071,-0.074 h 0.074 l 0.07,-0.071 h 0.145 0.07 l 0.074,-0.144 h 0.07 l 0.075,-0.074 h 0.07 l 0.145,-0.071 h 0.074 0.07 l 0.07,-0.07 h 0.075 l 0.07,-0.074 h 0.144 l 0.075,-0.071 h 0.07 0.07 l 0.074,-0.144 h 0.071 l 0.074,-0.074 h 0.145 l 0.07,-0.071 h 0.07 l 0.074,-0.074 h 0.071 0.074 l 0.144,-0.07 h 0.071 l 0.07,-0.07 h 0.074 l 0.071,-0.145 h 0.074 l 0.144,-0.074 h 0.071 0.07 l 0.074,-0.071 h 0.07 l 0.075,-0.074"
       inkscape:connector-curvature="0" />
    <path
       style="fill:none;stroke:#e18926;stroke-linejoin:round;stroke-opacity:1"
       id="path2743"
       d="m 106.812,213.066 h 0.071 0.074 0.07 0.145 0.07 l 0.074,-0.074 h 0.071 0.074 0.07 0.145 0.07 0.074 0.071 l 0.074,-0.07 h 0.07 0.145 0.07 0.074 0.071 0.074 0.07 l 0.074,-0.145 h 0.141 0.074 0.07 0.075 0.07 0.074 l 0.145,-0.074 h 0.07 0.07 0.075 0.07 0.074 0.145 0.07 l 0.07,-0.07 h 0.074 0.071 0.074 0.07 0.145 0.07 l 0.074,-0.071 h 0.071 0.074 0.07 0.145 0.07 0.074 0.071 l 0.074,-0.074 h 0.07 0.145 0.07 0.074 0.07 0.075 l 0.07,-0.07 h 0.074 0.145 0.07 0.07 0.075 0.07 l 0.074,-0.145 h 0.145 0.07 0.07 0.075 0.07 0.074 l 0.145,-0.074 h 0.07 0.07 0.074 0.071 0.074 l 0.07,-0.07 h 0.145 0.07 0.074 0.071 0.074 0.07 l 0.145,-0.07 h 0.07 0.074 0.071 0.074 0.07 0.145 l 0.07,-0.075 h 0.074 0.07 0.075 0.07 0.074 l 0.145,-0.07 h 0.07 0.07 0.075 0.07 0.074 l 0.145,-0.144 h 0.07 0.07 0.074 0.071 0.074 0.145 l 0.07,-0.075 h 0.07 0.074 0.071 0.074 0.07 l 0.145,-0.07 h 0.07 0.074 0.071 0.074 0.07 l 0.145,-0.07 h 0.07 0.074 0.071 0.074 0.07 l 0.145,-0.075 h 0.07 0.074 0.07 0.075 0.07 l 0.074,-0.07 h 0.145 0.07 0.07 0.075 0.07 l 0.074,-0.144 h 0.145 0.07 0.07 0.074 0.071 l 0.074,-0.075 h 0.145 0.07 0.07 0.074 l 0.071,-0.07 h 0.074 0.07 0.145 0.07 0.074 l 0.071,-0.07 h 0.074 0.07 0.145 0.07 0.074 l 0.07,-0.074 h 0.075 0.07 0.145 0.074 l 0.07,-0.071 h 0.07 0.075 0.07 0.074 l 0.145,-0.144 h 0.07 0.07 0.075 0.07 0.074 l 0.145,-0.074 h 0.07 0.07 0.074 0.071 l 0.074,-0.071 h 0.145 0.07 0.07 0.074 l 0.071,-0.07 h 0.074 0.144 0.071 0.07 l 0.074,-0.074 h 0.071 0.074 0.07 0.145 l 0.07,-0.071 h 0.074 0.07 0.075 0.07 0.145 l 0.074,-0.074 h 0.07 0.07 0.075 l 0.07,-0.144 h 0.144 0.075 0.07 0.07 l 0.074,-0.071 h 0.071 0.074 0.145 0.07 l 0.07,-0.07 h 0.074 0.071 0.074 0.144 l 0.071,-0.074 h 0.07 0.074 0.071 0.074 l 0.144,-0.071 h 0.071 0.07 0.074 l 0.071,-0.074 h 0.074 0.07 0.145 0.07 l 0.074,-0.144 h 0.07 0.075 0.07 0.145 l 0.074,-0.071 h 0.07 0.07 0.075 l 0.07,-0.074 h 0.144 0.075 0.07 0.07 l 0.074,-0.07 h 0.071 0.074 0.145 l 0.07,-0.07 h 0.07 0.074 0.071 0.074 l 0.144,-0.075 h 0.071 0.07 0.074 l 0.071,-0.144 h 0.074 0.144 0.071 0.07 l 0.074,-0.071 h 0.07 0.075 0.07 l 0.145,-0.074 h 0.074 0.07 0.07 l 0.075,-0.07 h 0.07 0.144 0.075 l 0.07,-0.07 h 0.07 0.075 0.07 l 0.144,-0.075 h 0.075 0.07 0.07 0.074 l 0.071,-0.144 h 0.074 0.145 0.07 l 0.07,-0.07 h 0.074 0.071"
       inkscape:connector-curvature="0" />
    <path
       style="fill:none;stroke:#e18926;stroke-linejoin:round;stroke-opacity:1"
       id="path2745"
       d="m 81.898,215.227 h 0.075 0.07 0.074 0.145 0.07 0.07 0.075 0.07 0.074 0.07 0.145 0.07 0.074 0.071 0.074 l 0.07,-0.075 h 0.145 0.07 0.074 0.071 0.074 0.07 0.145 0.07 0.074 0.071 0.074 0.07 0.074 0.141 l 0.074,-0.07 h 0.07 0.075 0.07 0.074 0.145 0.07 0.07 0.075 0.07 0.074 0.145 0.07 0.07 0.075 0.07 l 0.074,-0.144 h 0.145 0.07 0.07 0.074 0.071 0.074 0.07 0.145 0.07 0.074 0.071 0.074 0.07 0.145 l 0.07,-0.075 h 0.074 0.071 0.074 0.07 0.145 0.07 0.074 0.07 0.075 0.07 0.074 0.145 0.07 l 0.07,-0.07 h 0.075 0.07 0.074 0.145 0.07 0.07 0.074 0.071 0.074 0.145 0.07 0.07 0.074 l 0.071,-0.07 h 0.074 0.07 0.145 0.07 0.074 0.071 0.074 0.07 0.145 0.07 0.074 0.071 l 0.074,-0.075 h 0.07 0.145 0.07 0.074 0.07 0.075 0.07 0.074 0.145 0.07 0.07 0.075 l 0.07,-0.07 h 0.074 0.145 0.07 0.07 0.074 0.071 0.074 0.145 0.07 0.07 0.074 l 0.071,-0.144 h 0.074 0.07 0.145 0.07 0.074 0.071 0.074 0.07 0.145 0.07 0.074 l 0.07,-0.075 h 0.075 0.07 0.145 0.074 0.07 0.07 0.075 0.07 0.074 0.145 0.07 l 0.07,-0.07 h 0.075 0.07 0.074 0.145 0.07 0.07 0.074 0.071 0.074 0.145 l 0.07,-0.07 h 0.07 0.074 0.071 0.074 0.07 0.145 0.07 0.074 0.071 0.074 0.07 l 0.145,-0.074 h 0.07 0.074 0.07 0.075 0.07 0.145 0.074 0.07 0.07 l 0.075,-0.071 h 0.07 0.074 0.145 0.07 0.07 0.074 0.071 0.074 0.145 0.07 L 98.242,214 h 0.074 0.071 0.074 0.144 0.071 0.07 0.074 0.071 0.074 l 0.07,-0.145 h 0.145 0.07 0.074 0.071 0.074 0.07 0.145 0.07 0.074 l 0.07,-0.07 h 0.075 0.07 0.145 0.074 0.07 0.07 0.075 0.07 0.144 l 0.075,-0.07 h 0.07 0.07 0.074 0.071 0.074 0.145 0.07 0.07 0.074 l 0.071,-0.074 h 0.074 0.144 0.071 0.07 0.074 0.071 0.074 0.144 l 0.071,-0.071 h 0.07 0.074 0.07 0.075 0.07 0.145 0.074 0.07 l 0.07,-0.074 h 0.075 0.07 0.144 0.075 0.07 0.07 0.075 0.07 l 0.144,-0.144 h 0.075 0.07 0.07 0.074 0.071 0.074 0.145 0.07 l 0.07,-0.071 h 0.074 0.071 0.074 0.144 0.071 0.07 0.074 l 0.071,-0.07 h 0.074 0.144 0.071 0.07 0.074 0.07 0.075 0.07 l 0.145,-0.074 h 0.074 0.07 0.07 0.075 0.07 0.144 0.075 l 0.07,-0.071 h 0.07 0.074"
       inkscape:connector-curvature="0" />
    <path
       style="fill:none;stroke:#e18926;stroke-linejoin:round;stroke-opacity:1"
       id="path2747"
       d="m 56.988,216.305 h 0.071 0.074 0.07 0.074 0.141 0.074 0.07 0.075 0.07 0.074 0.145 0.07 0.07 0.075 0.07 l 0.074,-0.071 h 0.145 0.07 0.07 0.075 0.07 0.074 0.07 0.145 0.07 0.074 0.071 0.074 0.07 0.145 0.07 0.074 0.071 0.074 0.07 0.145 0.07 0.074 0.071 0.074 0.07 0.074 0.141 0.074 0.07 0.075 0.07 l 0.074,-0.074 h 0.145 0.07 0.07 0.075 0.07 0.074 0.145 0.07 0.07 0.074 0.071 0.074 0.07 0.145 0.07 0.074 0.071 0.074 0.07 0.145 0.07 0.074 0.071 0.074 0.07 0.145 0.07 0.074 0.071 0.074 l 0.07,-0.144 h 0.074 0.141 0.074 0.07 0.075 0.07 0.074 0.145 0.07 0.07 0.075 0.07 0.074 0.145 0.07 0.07 0.074 0.071 0.074 0.145 0.07 0.07 0.074 0.071 0.074 0.07 0.145 l 0.07,-0.071 h 0.074 0.071 0.074 0.07 0.145 0.07 0.074 0.07 0.075 0.07 0.145 0.074 0.07 0.07 0.075 0.07 0.074 0.145 0.07 0.07 0.075 0.07 0.074 0.145 0.07 l 0.07,-0.07 h 0.074 0.071 0.074 0.145 0.07 0.07 0.074 0.071 0.074 0.07 0.145 0.07 0.074 0.071 0.074 0.07 0.145 0.07 0.074 0.07 0.075 0.07 0.145 0.074 l 0.07,-0.074 h 0.07 0.075 0.07 0.074 0.145 0.07 0.07 0.074 0.071 0.074 0.145 0.07 0.07 0.074 0.071 0.074 0.144 0.071 0.07 0.074 0.071 0.074 l 0.07,-0.071 h 0.145 0.07 0.074 0.071 0.074 0.07 0.145 0.07 0.074 0.07 0.075 0.07 0.145 0.074 0.07 0.07 0.075 0.07 0.074 0.145 0.07 l 0.07,-0.074 h 0.074 0.071 0.074 0.145 0.07 0.07 0.074 0.071 0.074 0.144 0.071 0.07 0.074 0.071 0.074 0.07 0.145 0.07 0.074 0.07 l 0.075,-0.07 h 0.07 0.145 0.074 0.07 0.07 0.075 0.07 0.144 0.075 0.07 0.07 0.075 0.07 0.074 0.145 0.07 0.07 0.074 0.071 l 0.074,-0.145 h 0.145 0.07 0.07 0.074 0.071 0.074 0.144 0.071 0.07 0.074 0.071 0.074 0.144 0.071 0.07 0.074 0.07 0.075 l 0.07,-0.074 h 0.145 0.074 0.07 0.07 0.075 0.07 0.144 0.075 0.07 0.07 0.074 0.071 0.144 0.075 0.07 0.07 0.074 l 0.071,-0.07 h 0.074 0.144 0.071 0.07 0.074 0.071 0.074 0.144 0.071 0.07 0.074 0.071 0.074 0.144 0.071 0.07 l 0.074,-0.07 h 0.07"
       inkscape:connector-curvature="0" />
    <path
       style="fill:none;stroke:#e18926;stroke-linejoin:round;stroke-opacity:1"
       id="path2749"
       d="m 54.754,216.379 h 0.074 0.07 0.075 0.07 0.074 0.145 l 0.07,-0.074 h 0.07 0.075 0.07 0.074 0.07 0.145 0.07 0.074 0.071 0.074 0.07 0.145 0.07 0.074 0.071 0.074 0.07 0.145 0.07 0.074"
       inkscape:connector-curvature="0" />
  </g>
</svg>
